<svg width="63" height="63" viewBox="0 0 63 63" fill="none" xmlns="http://www.w3.org/2000/svg">
<path fill-rule="evenodd" clip-rule="evenodd" d="M16.384 3.83199C15.969 5.90699 14.914 6.99099 12.436 7.88699C8.042 9.47599 3.537 15.017 1.893 20.856C0.268999 26.624 0.268 41.055 1.892 46.807C3.615 52.911 9.02 58.497 15.313 60.68C22.48 63.165 40.462 63.186 47.576 60.717C57.838 57.155 62.087 49.47 62.129 34.395C62.171 19.611 59.124 12.385 51.237 8.56499C48.185 7.08699 46.8 5.71799 46.362 3.74999C45.626 0.442993 42.095 -0.0790074 41.29 2.99999C40.814 4.81799 39.926 4.99999 31.5 4.99999C23.074 4.99999 22.186 4.81799 21.71 2.99999C20.876 -0.190007 17.069 0.404992 16.384 3.83199ZM41 12.031C41 14.827 43.673 15.606 46.008 13.492C47.869 11.809 48.076 11.876 51.471 15.271C53.412 17.212 55 19.295 55 19.9C55 20.669 47.924 21 31.5 21C15.076 21 8 20.669 8 19.9C8 19.295 9.588 17.212 11.529 15.271C14.924 11.876 15.131 11.809 16.992 13.492C19.327 15.606 22 14.827 22 12.031C22 10.132 22.618 9.99999 31.5 9.99999C40.382 9.99999 41 10.132 41 12.031ZM56.487 35.5C56.47 47.066 54.48 51.362 47.472 54.969C43.167 57.184 41.397 57.461 31.564 57.46C21.787 57.458 19.924 57.169 15.552 54.979C9.058 51.725 6.807 47.373 6.201 36.903C5.952 32.61 6.019 28.393 6.35 27.531C6.877 26.158 10 25.998 31.725 26.232L56.5 26.5L56.487 35.5ZM30.061 32.962C28.151 34.143 29.226 37.5 31.514 37.5C32.776 37.5 33.61 36.727 33.803 35.377C34.133 33.062 32.062 31.726 30.061 32.962ZM15.441 34.096C15.068 34.699 15.492 35.92 16.382 36.81C17.873 38.301 18.127 38.301 19.618 36.81C21.508 34.92 20.693 33 18 33C16.965 33 15.813 33.493 15.441 34.096ZM42.441 34.096C42.068 34.699 42.492 35.92 43.382 36.81C44.873 38.301 45.127 38.301 46.618 36.81C48.508 34.92 47.693 33 45 33C43.965 33 42.813 33.493 42.441 34.096ZM15.441 45.096C15.068 45.699 15.492 46.92 16.382 47.81C17.873 49.301 18.127 49.301 19.618 47.81C21.508 45.92 20.693 44 18 44C16.965 44 15.813 44.493 15.441 45.096ZM29.18 46.25C29.39 47.727 30.187 48.5 31.5 48.5C32.813 48.5 33.61 47.727 33.82 46.25C34.082 44.404 33.665 44 31.5 44C29.335 44 28.918 44.404 29.18 46.25ZM42.441 45.096C42.068 45.699 42.492 46.92 43.382 47.81C44.873 49.301 45.127 49.301 46.618 47.81C48.508 45.92 47.693 44 45 44C43.965 44 42.813 44.493 42.441 45.096Z" fill="black"/>
</svg>

