<svg width="224" height="225" viewBox="0 0 224 225" fill="none" xmlns="http://www.w3.org/2000/svg">
<path fill-rule="evenodd" clip-rule="evenodd" d="M94 2.40801C-4.37299 20.008 -33.724 144.441 46.5 203.782C112.486 252.59 209.229 212.53 222.465 130.916C234.59 56.154 167.683 -10.775 94 2.40801ZM135.146 19.878C207.421 38.66 232.239 127.276 180 180.029C119.432 241.194 16.768 199.076 16.611 113C16.498 50.59 75.365 4.34301 135.146 19.878ZM58.455 59.455C52.982 64.927 53.748 66.138 78.221 90.699L100.441 113L78.221 135.301C53.748 159.862 52.982 161.073 58.455 166.545C63.927 172.018 65.138 171.252 89.699 146.779L112 124.559L134.301 146.779C158.862 171.252 160.073 172.018 165.545 166.545C171.018 161.073 170.252 159.862 145.779 135.301L123.559 113L145.779 90.699C170.252 66.138 171.018 64.927 165.545 59.455C160.073 53.982 158.862 54.748 134.301 79.221L112 101.441L89.699 79.221C65.138 54.748 63.927 53.982 58.455 59.455Z" fill="black"/>
</svg>

