<svg width="186" height="257" viewBox="0 0 186 257" fill="none" xmlns="http://www.w3.org/2000/svg">
<path fill-rule="evenodd" clip-rule="evenodd" d="M57 1.307C53.093 2.539 43 12.003 43 14.435C43 15.757 41.349 16 32.366 16C26.517 16 19.88 16.547 17.616 17.216C12.123 18.839 3.83901 27.123 2.21601 32.616C0.462013 38.554 0.462013 233.446 2.21601 239.384C3.83901 244.877 12.123 253.161 17.616 254.784C23.519 256.528 162.481 256.528 168.384 254.784C173.877 253.161 182.161 244.877 183.784 239.384C185.538 233.446 185.538 38.554 183.784 32.616C182.161 27.123 173.877 18.839 168.384 17.216C166.12 16.547 159.483 16 153.634 16C144.651 16 143 15.757 143 14.435C143 11.711 132.857 2.538 128.384 1.216C122.981 -0.379999 62.108 -0.302999 57 1.307ZM126.545 18.455C128.093 20.002 129 22.052 129 24C129 25.948 128.093 27.998 126.545 29.545L124.091 32H93H61.909L59.455 29.545C57.907 27.998 57 25.948 57 24C57 22.052 57.907 20.002 59.455 18.455L61.909 16H93H124.091L126.545 18.455ZM43 33.565C43 36.289 53.143 45.462 57.616 46.784C63.36 48.481 122.64 48.481 128.384 46.784C132.857 45.462 143 36.289 143 33.565C143 32.244 144.643 32 153.545 32C163.409 32 164.25 32.159 166.545 34.455L169 36.909V136V235.091L166.545 237.545L164.091 240H93H21.909L19.455 237.545L17 235.091V136V36.909L19.455 34.455C21.75 32.159 22.591 32 32.455 32C41.357 32 43 32.244 43 33.565ZM139.289 85.3C138.074 85.975 124.428 103.172 108.965 123.514C93.503 143.856 80.246 161.123 79.505 161.885C78.366 163.057 76.801 161.825 69.342 153.885C52.64 136.108 52.518 136 49.086 136C44.89 136 41 139.845 41 143.992C41 147.062 46.768 153.879 69.519 177.699C76.085 184.573 79.767 185.747 83.793 182.25C88.187 178.433 150.089 95.806 150.648 93.012C151.121 90.643 150.651 89.497 148.194 87.04C144.929 83.775 142.786 83.356 139.289 85.3Z" fill="black"/>
</svg>

