<svg width="65" height="58" viewBox="0 0 65 58" fill="none" xmlns="http://www.w3.org/2000/svg">
<path fill-rule="evenodd" clip-rule="evenodd" d="M11.594 1.041C9.99502 1.519 7.21402 3.339 5.41202 5.085C0.829015 9.527 -0.369985 15.409 0.215015 30.588C0.816015 46.184 2.85901 51.021 10.509 54.961C14.963 57.255 16.794 57.534 29.47 57.852C37.997 58.067 45.584 57.739 48.813 57.017C54.139 55.826 59.988 51.759 62.129 47.759C64.019 44.227 64.881 34.228 63.896 27.268C62.264 15.748 57.23 11 46.646 11C41.386 11 40.928 10.793 37.929 7.061C36.188 4.895 33.008 2.42 30.862 1.561C26.669 -0.115999 16.391 -0.393999 11.594 1.041ZM33.799 10.782L38.621 16H45.356C51.11 16 52.436 16.346 54.463 18.372C59.441 23.35 60.639 37.325 56.75 45.038C53.381 51.72 48.617 53.113 30.5 52.715C8.08902 52.223 6.66701 50.834 6.16101 28.92C5.88001 16.757 6.10502 13.698 7.47502 11.047C9.77902 6.592 14.078 4.909 22.238 5.268C28.948 5.563 28.996 5.586 33.799 10.782ZM16.104 34.914C15.337 35.4 14.985 36.519 15.323 37.399C15.852 38.777 18.228 39 32.41 39C49.013 39 51.469 38.474 48.964 35.456C48.002 34.297 44.666 34.003 32.628 34.015C24.307 34.024 16.872 34.428 16.104 34.914Z" fill="black"/>
</svg>

