<svg width="68" height="52" viewBox="0 0 68 52" fill="none" xmlns="http://www.w3.org/2000/svg">
<path fill-rule="evenodd" clip-rule="evenodd" d="M28 0.704013C25.154 1.73901 21.043 6.34001 19.919 9.74701C19.004 12.519 19.106 13.99 20.463 17.542C24.298 27.584 37.649 29.719 44.909 21.451C50.565 15.009 48.68 5.47201 40.961 1.48001C38.172 0.0370117 31.01 -0.391987 28 0.704013ZM11.198 3.67301C5.517 6.47301 3.612 12.415 6.565 18.125C8.172 21.232 13.38 24.175 15.698 23.286C17.976 22.411 17.091 19.559 13.994 17.797C11.685 16.483 11 15.388 11 13.013C11 10.553 11.704 9.51701 14.5 7.86701C18.312 5.61801 18.611 5.01101 16.8 3.20001C15.294 1.69401 15.196 1.70301 11.198 3.67301ZM51.019 3.47701C50.01 4.69301 50.006 5.30201 51 6.50001C51.685 7.32501 52.849 8.00001 53.587 8.00001C54.326 8.00001 55.395 8.87001 55.965 9.93401C57.81 13.382 57.157 16.004 54.006 17.797C48.456 20.955 50.995 25.111 56.767 22.316C60.558 20.48 63.375 14.985 62.521 11.094C61.324 5.64401 53.513 0.472013 51.019 3.47701ZM40.364 7.63601C43.755 11.027 43.825 15.266 40.545 18.545C35.182 23.909 25 20.277 25 13C25 5.61901 34.893 2.16501 40.364 7.63601ZM9.5 27.996C3.247 29.364 0 32.419 0 36.934C0 39.763 3.468 43 6.5 43C9.444 43 10.027 39.674 7.346 38.173C5.006 36.864 6.345 34.185 9.707 33.446C14.562 32.38 15 32.107 15 30.138C15 27.764 13.405 27.142 9.5 27.996ZM53.324 28.505C51.844 29.587 51.781 30.031 52.91 31.392C53.644 32.276 55.119 33 56.188 33C58.702 33 62 34.773 62 36.125C62 36.705 61.028 37.966 59.841 38.928C57.328 40.963 58.1 43 61.385 43C64.119 43 68.012 39.118 67.968 36.436C67.88 31.059 57.511 25.444 53.324 28.505ZM28.92 30.076C23.258 30.953 16.647 34.238 14.566 37.209C13.705 38.439 13 40.841 13 42.548C13 49.34 21.014 52.473 36.766 51.84C44.274 51.539 47.356 50.976 50.019 49.421C63.295 41.667 47.511 27.195 28.92 30.076ZM44.038 37.25C48.871 39.687 50.229 42.736 47.493 45.006C45.591 46.584 32.109 47.543 25.584 46.565C16.829 45.252 16.226 40.617 24.331 36.937C30.185 34.279 38.405 34.409 44.038 37.25Z" fill="black"/>
</svg>

