<svg width="64" height="62" viewBox="0 0 64 62" fill="none" xmlns="http://www.w3.org/2000/svg">
<path fill-rule="evenodd" clip-rule="evenodd" d="M23.5661 2.24406C17.3591 5.56406 3.77307 17.3421 1.73307 21.1721C0.366072 23.7381 -0.00592888 26.9211 7.11229e-05 35.9991C0.00707112 46.2471 0.285071 48.1161 2.45607 52.4821C6.62107 60.8601 8.49407 61.4401 31.4041 61.4401C48.9131 61.4401 51.3101 61.2361 54.8761 59.4401C61.3331 56.1891 62.8431 52.4241 63.2641 38.5291C63.7571 22.2231 63.1071 20.4571 53.6121 12.3281C39.0251 -0.159942 32.2881 -2.42194 23.5661 2.24406ZM43.1531 10.7721C46.8661 13.5351 51.6831 17.6281 53.8581 19.8691C57.8091 23.9391 57.8121 23.9481 58.1561 33.1911C58.5861 44.7481 56.9781 51.4471 53.0811 54.3431C50.4561 56.2941 48.9781 56.4401 31.9061 56.4401C14.8451 56.4401 13.3541 56.2931 10.7281 54.3461C9.17507 53.1951 7.36707 50.7201 6.71007 48.8461C5.22107 44.5941 5.04707 28.2621 6.44907 24.2401C7.47007 21.3121 16.1341 13.4231 24.7201 7.60506C30.5581 3.64906 34.4861 4.32406 43.1531 10.7721ZM20.7531 41.4731C19.6361 44.3831 21.9261 45.0181 32.4911 44.7271C42.1421 44.4611 42.9041 44.2941 42.9041 42.4401C42.9041 40.5811 42.1431 40.4201 32.1361 40.1561C23.0121 39.9151 21.2731 40.1171 20.7531 41.4731Z" fill="black"/>
</svg>

