<svg width="208" height="176" viewBox="0 0 208 176" fill="none" xmlns="http://www.w3.org/2000/svg">
<path fill-rule="evenodd" clip-rule="evenodd" d="M94.121 1.153C61.882 4.481 20.144 37.235 32.455 49.545C36.409 53.5 42.21 52.3 45.422 46.862C65.745 12.458 121.786 6.955 152.707 36.326C166.688 49.607 182.486 83.889 170.106 74.084C160.202 66.24 149.122 76.111 158.25 84.647C171.475 97.013 182.695 103.735 186.815 101.76C190.866 99.818 208 77.132 208 73.71C208 66.237 199.018 63.58 193.508 69.422L190.281 72.845L188.137 64.834C177.145 23.768 137.194 -3.293 94.121 1.153ZM17.844 76.75C10.499 84.734 0 99.797 0 102.351C0 109.764 9.009 112.391 14.492 106.578L17.719 103.155L19.863 111.166C36.928 174.922 117.6 196.841 164.635 150.5C178.27 137.066 180.732 131.641 175.545 126.455C172.54 123.449 164 123.8 164 126.929C164 127.263 161.863 130.119 159.25 133.276C123.75 176.178 54.154 163.441 36.566 110.824C32.77 99.468 32.985 98.028 37.894 101.916C47.804 109.765 58.864 99.899 49.75 91.34C33.198 75.797 23.008 71.137 17.844 76.75Z" fill="black"/>
</svg>

