<svg width="384" height="384" viewBox="0 0 384 384" fill="none" xmlns="http://www.w3.org/2000/svg">
<path fill-rule="evenodd" clip-rule="evenodd" d="M299.593 2.088C294.279 6.268 293.978 7.945 293.978 33.364V56.828L277.728 57.175C263.404 57.482 261.004 57.778 257.478 59.674C253.272 61.936 248.645 66.469 245.408 71.5C243.57 74.357 243.465 77.135 243.196 129.75L242.913 185H216.4H189.887L187.433 187.455C186.083 188.805 184.978 190.85 184.978 192C184.978 193.15 186.083 195.195 187.433 196.545L189.887 199H216.433H242.978L243 252.75C243.021 304.639 243.092 306.656 245.057 311C247.551 316.516 252.17 321.472 257.478 324.326C261.004 326.222 263.404 326.518 277.728 326.825L293.978 327.172V350.636C293.978 376.055 294.279 377.732 299.593 381.912C302.049 383.844 303.522 384 319.298 384H336.349L360.164 360.186L383.978 336.371V307.136C383.978 274.242 383.839 273.5 376.997 270.01C373.283 268.115 371.139 268 339.486 268C303.18 268 301.854 268.17 296.978 273.449C294.527 276.103 294.472 276.519 294.166 294.578L293.854 313H279.866C269.413 313 265.149 312.622 262.989 311.506C256.729 308.269 256.978 310.718 256.978 252.277V199H275.478H293.978V219.266C293.978 236.99 294.208 239.968 295.813 243.016C296.822 244.932 299.184 247.287 301.063 248.248C303.879 249.69 307.19 249.997 319.931 249.998L335.384 250L359.681 225.777L383.978 201.554V171.912C383.978 143.366 383.901 142.172 381.89 139.615C377.525 134.066 377.026 134 339.278 134.002C308.15 134.003 304.109 134.188 300.978 135.752C298.976 136.752 296.73 138.998 295.73 141C294.238 143.986 293.981 147.474 293.98 164.75L293.978 185H275.478H256.978V131.723C256.978 73.282 256.729 75.731 262.989 72.494C265.149 71.378 269.413 71 279.866 71H293.854L294.166 89.422C294.472 107.481 294.527 107.897 296.978 110.551C301.308 115.239 304.612 116 320.635 116H335.357L359.667 91.745L383.978 67.49V38.149C383.978 12.783 383.756 8.434 382.342 6.04C381.443 4.517 379.461 2.535 377.938 1.636C375.511 0.202 370.666 0 338.709 0C303.248 0 302.175 0.0569994 299.593 2.088ZM370.747 35.187L371.017 56.873L353.247 57.187C336.35 57.485 335.313 57.618 332.115 59.899C326.723 63.744 325.978 66.85 325.978 85.468V102H316.978H307.978V57.486V12.972L339.228 13.236L370.478 13.5L370.747 35.187ZM9.23442 44.965C1.75042 46.764 -0.0275793 50.662 0.000420694 65.2C0.0184207 74.397 0.401423 77.338 2.05942 81C4.70042 86.835 8.33842 90.605 14.2284 93.61L18.9784 96.034V116.123C18.9784 138.35 19.8634 143.863 25.1734 154.709C26.8444 158.124 30.5994 163.524 33.5174 166.709C36.4354 169.894 44.4614 176.775 51.3534 182C58.2454 187.225 63.8784 191.725 63.8714 192C63.8644 192.275 58.2244 196.775 51.3384 202C44.4524 207.225 36.4314 214.106 33.5154 217.291C30.5984 220.476 26.8444 225.876 25.1734 229.291C19.8634 240.137 18.9784 245.65 18.9784 267.877V287.966L14.2284 290.39C8.33842 293.395 4.70042 297.165 2.05942 303C0.401423 306.662 0.0184207 309.603 0.000420694 318.8C-0.0245793 331.627 1.05342 334.896 6.24542 337.733C9.27542 339.389 15.7414 339.5 109.022 339.5C203.284 339.5 208.712 339.404 211.32 337.696C212.834 336.703 214.95 334.453 216.022 332.696C217.612 330.088 217.971 327.647 217.974 319.428C217.977 312.805 217.43 307.747 216.376 304.655C214.5 299.149 207.515 291.685 202.562 289.894L199.19 288.675L198.761 266.587C198.362 245.996 198.16 244.02 195.776 237.422C193.136 230.112 189.856 224.264 184.729 217.724C183.101 215.647 175.516 209.179 167.873 203.35C160.231 197.521 153.978 192.419 153.978 192.012C153.978 191.606 159.491 187.058 166.228 181.905C172.966 176.753 179.752 171.409 181.309 170.031C185.851 166.01 192.851 154.698 195.682 146.8C198.134 139.962 198.329 138.096 198.757 117.329C199.202 95.719 199.268 95.144 201.346 94.621C202.519 94.325 205.366 92.694 207.673 90.996C210.428 88.967 212.916 85.81 214.923 81.794C217.754 76.13 217.978 74.903 217.974 65.09C217.971 56.358 217.629 53.939 216.022 51.304C214.95 49.547 212.834 47.297 211.32 46.304C208.718 44.599 203.187 44.491 110.522 44.343C56.5984 44.256 11.0184 44.536 9.23442 44.965ZM203.978 66.515C203.978 74.815 203.892 75.123 200.555 78.765L197.132 82.5L111.2 82.772C43.7484 82.985 24.4504 82.77 21.4684 81.772C15.4924 79.771 13.6974 76.471 13.1754 66.523L12.7274 58H108.353H203.978V66.515ZM351.173 81C345.673 86.5 340.904 91 340.576 91C340.247 91 339.978 86.5 339.978 81V71H350.576H361.173L351.173 81ZM43.9864 107.25C43.9944 120.505 45.3294 129.807 47.9614 134.968C49.0074 137.017 52.2824 140.9 55.2404 143.597C63.2504 150.899 94.9224 175.117 99.1804 177.194C103.94 179.517 113.898 179.604 118.278 177.361C123.455 174.71 162.861 143.965 166.074 140.069C167.694 138.106 169.909 134.121 170.998 131.212C172.647 126.808 172.978 123.427 172.978 110.962V96H178.978H184.978V114.451C184.978 124.599 184.472 135.286 183.854 138.201C182.304 145.506 178.652 152.365 173.224 158.169C170.701 160.865 161.476 168.527 152.723 175.195C143.969 181.862 136.407 188.371 135.918 189.659C135.4 191.02 135.398 192.974 135.912 194.327C136.399 195.607 143.229 201.57 151.091 207.577C158.953 213.585 167.92 220.844 171.02 223.708C177.362 229.57 182.222 237.924 183.869 245.799C184.479 248.714 184.978 259.401 184.978 269.549V288H178.978H172.978V273.038C172.978 260.573 172.647 257.192 170.998 252.788C169.909 249.879 167.694 245.894 166.074 243.931C162.833 240.001 123.562 209.379 117.978 206.427C113.102 203.849 103.388 203.965 98.8644 206.655C93.9874 209.555 61.6014 234.611 55.2444 240.403C52.2844 243.1 49.0074 246.983 47.9614 249.032C45.3294 254.193 43.9944 263.495 43.9864 276.75L43.9784 288H38.5744H33.1704L32.4384 277.255C32.0354 271.345 31.9834 262.233 32.3234 257.005C33.1934 243.611 35.8124 235.877 42.2534 227.682C44.9874 224.203 50.7814 219.48 72.8674 202.727C77.0534 199.552 80.8804 195.903 81.3724 194.617C81.8634 193.332 81.9924 191.205 81.6594 189.89C81.2564 188.301 75.1244 182.974 63.3714 174C53.6464 166.575 43.9874 158.363 41.9064 155.752C37.6554 150.416 34.2494 142.193 32.8974 134C31.8514 127.662 31.6484 97.663 32.6454 96.667C33.0114 96.3 35.7114 96 38.6454 96H43.9784L43.9864 107.25ZM159.442 110.5C159.394 128.996 159.027 129.697 142.887 142.123C112.095 165.829 111.852 166 108.899 166C106.771 166 102.581 163.41 93.2364 156.32C70.0234 138.708 62.0524 132.043 60.2724 128.753C58.8764 126.174 58.4364 122.44 58.1524 110.741L57.7944 95.982L108.636 96.241L159.478 96.5L159.442 110.5ZM370.978 170V192H353.346C337.413 192 335.4 192.194 332.452 194.016C326.799 197.51 325.978 200.729 325.978 219.401V236H316.978H307.978V192V148H339.478H370.978V170ZM359.978 205.769C359.978 206.192 355.478 211.021 349.978 216.5L339.978 226.462V215.731V205H349.978C355.478 205 359.978 205.346 359.978 205.769ZM120.615 224.804C153.93 250.377 155.134 251.384 157.219 255.411C158.915 258.685 159.425 261.832 159.779 271.198C160.022 277.632 159.933 284.045 159.58 285.448L158.94 288H108.367H57.7954L58.1364 273.25C58.4444 259.961 58.7044 258.136 60.7644 254.824C62.9664 251.282 72.3844 243.464 95.2884 226.165C102.893 220.421 106.937 218 108.925 218C110.881 218 114.48 220.095 120.615 224.804ZM370.978 303.937V325.874L353.048 326.187C336.769 326.471 334.858 326.691 332.298 328.571C330.747 329.71 328.691 332.185 327.73 334.071C326.271 336.931 325.981 340.279 325.98 354.25L325.978 371H316.978H307.978V326.5V282H339.478H370.978V303.937ZM200.555 305.235C203.892 308.877 203.978 309.185 203.978 317.485V326H108.353H12.7274L13.1754 317.477C13.6874 307.712 15.4754 304.275 21.0724 302.295C23.6464 301.385 45.5764 301.141 110.805 301.295L197.132 301.5L200.555 305.235ZM359.978 340.269C359.978 340.417 355.478 345.021 349.978 350.5L339.978 360.462V350.231V340H349.978C355.478 340 359.978 340.121 359.978 340.269Z" fill="black"/>
</svg>

