<svg width="48" height="60" viewBox="0 0 48 60" fill="none" xmlns="http://www.w3.org/2000/svg">
<path fill-rule="evenodd" clip-rule="evenodd" d="M15.708 2.08999C5.05602 7.71099 5.42902 22.641 16.353 27.929C21.742 30.538 26.249 30.555 31.434 27.985C36.73 25.362 39.229 21.778 39.723 16.098C40.778 3.97299 27.174 -3.96201 15.708 2.08999ZM29.033 6.51699C33.434 8.79299 35.404 13.245 33.954 17.639C32.667 21.538 27.992 24.993 24 24.993C20.339 24.993 15.527 21.686 14.07 18.169C12.356 14.032 13.761 10.105 17.975 7.24999C21.858 4.61899 24.964 4.41299 29.033 6.51699ZM13.011 35.96C7.12602 37.991 1.51902 43.085 0.441018 47.377C-0.472982 51.02 1.95902 55.049 6.50002 57.415C9.97802 59.228 12.263 59.5 24 59.5C35.216 59.5 38.142 59.181 41.294 57.615C55.65 50.483 43.19 33.906 23.568 34.033C20.781 34.051 16.03 34.918 13.011 35.96ZM35.624 42.06C40.667 44.501 43.034 48.128 41.347 50.828C39.58 53.654 31.436 55.164 20.716 54.652C6.64502 53.98 2.32102 50.314 8.66502 44.434C14.681 38.859 26.806 37.791 35.624 42.06Z" fill="black"/>
</svg>

