<svg width="64" height="60" viewBox="0 0 64 60" fill="none" xmlns="http://www.w3.org/2000/svg">
<path fill-rule="evenodd" clip-rule="evenodd" d="M51.5052 0.524186C48.6972 1.70719 46.1482 5.42419 46.1482 8.33819C46.1482 12.0462 50.4142 15.5752 54.8532 15.5382C59.2772 15.5012 61.6692 13.9612 63.0842 10.2392C64.1942 7.32019 63.2742 3.75019 60.9072 1.78519C58.8752 0.0991862 54.0502 -0.547814 51.5052 0.524186ZM21.6482 2.26919C11.3222 3.64219 4.50421 8.51319 1.63021 16.5742C-0.371788 22.1892 -0.576788 38.4172 1.27621 44.6022C3.09621 50.6772 8.72421 56.0702 15.2742 58.0152C22.2272 60.0802 39.0692 60.0802 46.0222 58.0152C52.8962 55.9732 58.3142 50.6092 60.1762 44.0002C60.9402 41.2892 61.5442 35.1162 61.5192 30.2822C61.4712 21.0282 60.4022 18.2882 57.5462 20.0922C56.3302 20.8602 55.9602 23.3212 55.8202 31.5702C55.6772 40.0462 55.2572 42.7242 53.6452 45.4652C49.5812 52.3752 44.1282 54.5222 30.6482 54.5222C12.0422 54.5222 6.38821 49.9642 5.40321 34.1712C4.45921 19.0512 8.20221 11.0532 17.4512 8.42719C19.7592 7.77219 26.1482 7.19819 31.6482 7.15319C40.8762 7.07619 41.6482 6.91919 41.6482 5.11519C41.6482 3.88219 40.7252 2.90319 39.1482 2.46519C36.4762 1.72219 26.5952 1.61119 21.6482 2.26919ZM57.1372 6.05719C58.9192 8.20419 57.6002 10.7732 54.9132 10.3902C52.3502 10.0252 51.2752 6.73819 53.3002 5.45519C55.1742 4.26719 55.7232 4.35319 57.1372 6.05719ZM39.2602 26.1802L35.1172 30.8872L30.7192 27.7282C28.3002 25.9912 25.7202 24.5762 24.9852 24.5832C22.9622 24.6042 12.8682 37.3982 13.5242 39.1092C14.6292 41.9862 17.9272 40.5782 21.7142 35.6122L25.4952 30.6542L30.2052 34.1122C32.7962 36.0142 35.3662 37.5702 35.9172 37.5702C37.5142 37.5702 47.2112 25.2242 46.9032 23.5812C46.3352 20.5402 43.3232 21.5642 39.2602 26.1802Z" fill="black"/>
</svg>

