<svg width="50" height="65" viewBox="0 0 50 65" fill="none" xmlns="http://www.w3.org/2000/svg">
<path fill-rule="evenodd" clip-rule="evenodd" d="M17.962 2.25C12.695 4.906 9 11.161 9 17.42C9 20.589 8.303 22.149 5.633 24.958C1.365 29.446 0 33.578 0 42C0 58.544 7.02 64.519 26.226 64.324C40.918 64.175 48.112 58.956 49.556 47.397C50.848 37.055 48.59 28.183 43.684 24.324C41.874 22.9 41.191 21.137 40.735 16.717C39.977 9.378 37.073 4.698 31.647 2.071C26.187 -0.572001 23.488 -0.537 17.962 2.25ZM31.322 7.762C33.547 9.741 36 15.019 36 17.828C36 19.572 35.136 19.716 24.892 19.68L13.785 19.64L14.31 15.722C14.851 11.695 17.967 7.444 21.5 5.916C24.2 4.748 28.935 5.638 31.322 7.762ZM37.466 26.421C42.467 28.511 44.46 32.95 44.46 42C44.46 55.643 40.618 59 25 59C9.001 59 5.5 55.948 5.5 42C5.5 32.208 7.009 28.772 12.325 26.459C16.643 24.581 33.003 24.557 37.466 26.421ZM23.2 37.2C21.411 38.989 21.692 46.5 23.608 48.09C24.975 49.224 25.426 49.138 26.608 47.521C28.472 44.972 28.374 39.517 26.429 37.571C24.547 35.69 24.693 35.707 23.2 37.2Z" fill="black"/>
</svg>

