<svg width="53" height="64" viewBox="0 0 53 64" fill="none" xmlns="http://www.w3.org/2000/svg">
<path fill-rule="evenodd" clip-rule="evenodd" d="M21.8547 0.149022C19.0225 0.833083 16.8427 2.53685 15.4987 5.11717L14.5025 7.02968V10.9231C14.5025 15.4251 14.7741 16.2774 16.5679 17.4042L17.6282 18.0703H26.5H35.3718L36.4321 17.4042C38.2259 16.2774 38.4975 15.4251 38.4975 10.9231V7.02968L37.5013 5.11717C36.3836 2.97112 35.1316 1.79547 32.8381 0.738721C31.4554 0.101465 31.1482 0.0626695 27.0274 0.0081048C24.6345 -0.0234326 22.3067 0.0398924 21.8547 0.149022ZM31.5263 5.30514C33.3106 6.50606 33.6194 7.30876 33.6194 10.7451V13.6901H26.5H19.3806V10.7869C19.3806 7.49123 19.6886 6.55637 21.1146 5.5239C22.4282 4.57277 23.1639 4.44362 26.9393 4.50118C30.3323 4.553 30.436 4.57127 31.5263 5.30514ZM4.21891 9.77369C2.75415 10.4225 1.17998 11.9322 0.467508 13.3717C0.0311146 14.2533 0 15.7843 0 36.4671V58.6184L0.741209 60.0511C1.14886 60.8393 1.96364 61.875 2.55191 62.3528C4.65108 64.0583 3.79781 63.9998 26.5 63.9998C49.2022 63.9998 48.3489 64.0583 50.4481 62.3528C51.0364 61.875 51.8511 60.8393 52.2588 60.0511L53 58.6184V36.4671V14.3158L52.3764 13.1242C51.6001 11.6412 49.5682 9.87581 48.1841 9.48234C47.6085 9.31865 46.0486 9.18474 44.7175 9.18474C42.4991 9.18474 42.2428 9.23605 41.6498 9.79922C40.7145 10.6868 40.766 12.0023 41.7732 12.9585C42.4812 13.6305 42.6974 13.6901 44.4274 13.6901C46.3289 13.6901 47.1964 13.9431 47.7839 14.6695C48.0304 14.9744 48.1071 20.0496 48.1135 36.5157L48.1219 57.9646L47.4856 58.6669L46.8491 59.3693H26.5H6.1509L5.51437 58.6669L4.87811 57.9646L4.88655 36.5157C4.89288 20.0496 4.96961 14.9744 5.21615 14.6695C5.80363 13.9431 6.67114 13.6901 8.57255 13.6901C10.3026 13.6901 10.5188 13.6305 11.2268 12.9585C12.234 12.0023 12.2855 10.6868 11.3502 9.79922C10.7508 9.23004 10.5127 9.18499 8.12007 9.18724C5.97028 9.18924 5.31635 9.28761 4.21891 9.77369ZM10.3951 30.4407C9.86907 30.94 9.62438 31.4231 9.62438 31.9618C9.62438 32.5004 9.86907 32.9835 10.3951 33.4828L11.1659 34.2144H26.5H41.8341L42.6049 33.4828C43.6411 32.4991 43.6411 31.4244 42.6049 30.4407L41.8341 29.7091H26.5H11.1659L10.3951 30.4407ZM10.6562 41.5436C9.42609 42.4402 9.3106 43.967 10.3951 44.9965L11.1659 45.7281H20.4353H29.7048L30.4755 44.9965C31.4828 44.0403 31.5342 42.7248 30.5989 41.8372L29.9519 41.2227L20.5131 41.2307C13.5095 41.2365 10.9668 41.3174 10.6562 41.5436Z" fill="black"/>
</svg>

