<svg width="60" height="67" viewBox="0 0 60 67" fill="none" xmlns="http://www.w3.org/2000/svg">
<path fill-rule="evenodd" clip-rule="evenodd" d="M21.248 2.25C20.093 3.488 18.848 5.711 18.481 7.191C17.998 9.135 16.974 10.066 14.794 10.545C10.402 11.51 4.39098 17.416 2.30798 22.814C-0.355016 29.716 -0.142016 46.792 2.68698 53.093C7.01598 62.736 14.22 66.218 29.835 66.216C45.302 66.214 52.325 63.304 57 54.961C59.31 50.84 59.5 49.51 59.5 37.5C59.5 26.12 59.233 24.001 57.356 20.5C54.636 15.424 52.579 13.586 46.713 10.991C43.363 9.509 42 8.328 42 6.908C42 5.808 40.895 3.805 39.545 2.455C37.416 0.325 36.182 0 30.22 0C24.383 0 23.032 0.339 21.248 2.25ZM35.066 5.035C36.13 5.605 37 6.73 37 7.535C37 8.682 35.481 9 30 9C26.15 9 23 8.582 23 8.071C23 4.641 30.706 2.702 35.066 5.035ZM40.114 14.009C46.87 15.276 49.895 17.433 52.75 23.02C55.984 29.35 55.7 30.457 50.25 32.767C36.735 38.495 21.182 38.215 9.04498 32.023C5.18898 30.056 5.16098 30 6.18898 26.268C8.17398 19.062 12.353 15.621 21.5 13.661C25.36 12.833 34.78 13.01 40.114 14.009ZM14.339 39.125C17.551 40.156 21.226 41 22.507 41C26.768 41 28 42.04 28 45.638C28 47.856 28.564 49.279 29.601 49.677C31.551 50.425 32.964 48.412 32.985 44.857C33.001 42.033 34.523 41.02 38.832 40.967C40.299 40.949 43.975 40.028 47 38.92C50.025 37.812 53.195 36.673 54.044 36.39C55.378 35.945 55.497 36.804 54.918 42.687C54.549 46.434 53.78 50.665 53.209 52.089C50.412 59.069 40.532 62.661 26.722 61.717C11.962 60.708 6.29898 55.591 5.23198 42.296C4.73198 36.077 4.81598 35.719 6.59998 36.46C7.64498 36.895 11.128 38.094 14.339 39.125Z" fill="black"/>
</svg>

